<svg xmlns="http://www.w3.org/2000/svg" xmlns:xlink="http://www.w3.org/1999/xlink" width="32" height="32" class="icon" p-id="7579" t="1558094746746" version="1.1" viewBox="0 0 1024 1024"><defs><style type="text/css"/></defs><path fill="#FEE8EB" d="M512 512m-480 0a480 480 0 1 0 960 0 480 480 0 1 0-960 0Z" p-id="7580"/><path fill="#FF6B6A" d="M345.6 275.2c0-25.6 19.2-51.2 51.2-51.2h236.8c25.6 0 51.2 19.2 51.2 51.2v454.4c0 25.6-19.2 51.2-51.2 51.2H390.4c-25.6 0-51.2-19.2-51.2-51.2V275.2z" p-id="7581"/><path fill="#FFB0B0" d="M512 371.2m-96 0a96 96 0 1 0 192 0 96 96 0 1 0-192 0Z" p-id="7582"/><path fill="#FFB0B0" d="M512 608m-96 0a96 96 0 1 0 192 0 96 96 0 1 0-192 0Z" p-id="7583"/><path fill="#FE5A59" d="M486.4 774.4h51.2V896h-51.2z" p-id="7584"/></svg>